<?xml version="1.0" encoding="UTF-8" standalone="no"?>
<!-- Created with Inkscape (http://www.inkscape.org/) -->

<svg
   xmlns:dc="http://purl.org/dc/elements/1.1/"
   xmlns:cc="http://creativecommons.org/ns#"
   xmlns:rdf="http://www.w3.org/1999/02/22-rdf-syntax-ns#"
   xmlns:svg="http://www.w3.org/2000/svg"
   xmlns="http://www.w3.org/2000/svg"
   xmlns:sodipodi="http://sodipodi.sourceforge.net/DTD/sodipodi-0.dtd"
   xmlns:inkscape="http://www.inkscape.org/namespaces/inkscape"
   version="1.0"
   width="166.03305"
   height="192.11954"
   id="svg2811"
   inkscape:version="0.92.4 (5da689c313, 2019-01-14)"
   sodipodi:docname="hexicon.svg"
   inkscape:export-filename="/home/pacha/GitHub/gravity/docs/apple.png"
   inkscape:export-xdpi="90"
   inkscape:export-ydpi="90">
  <metadata
     id="metadata17">
    <rdf:RDF>
      <cc:Work
         rdf:about="">
        <dc:format>image/svg+xml</dc:format>
        <dc:type
           rdf:resource="http://purl.org/dc/dcmitype/StillImage" />
        <dc:title />
      </cc:Work>
    </rdf:RDF>
  </metadata>
  <sodipodi:namedview
     pagecolor="#ffffff"
     bordercolor="#666666"
     borderopacity="1"
     objecttolerance="10"
     gridtolerance="10"
     guidetolerance="10"
     inkscape:pageopacity="0"
     inkscape:pageshadow="2"
     inkscape:window-width="1366"
     inkscape:window-height="705"
     id="namedview15"
     showgrid="false"
     fit-margin-top="0"
     fit-margin-left="0"
     fit-margin-right="0"
     fit-margin-bottom="0"
     inkscape:zoom="2.9364168"
     inkscape:cx="48.707755"
     inkscape:cy="83.372159"
     inkscape:window-x="-8"
     inkscape:window-y="-8"
     inkscape:window-maximized="1"
     inkscape:current-layer="g79"
     showguides="true"
     inkscape:guide-bbox="true" />
  <defs
     id="defs2813">
    <inkscape:perspective
       sodipodi:type="inkscape:persp3d"
       inkscape:vp_x="0 : 882.13641 : 1"
       inkscape:vp_y="0 : 1000 : 0"
       inkscape:vp_z="1500 : 882.13641 : 1"
       inkscape:persp3d-origin="750 : 588.09094 : 1"
       id="perspective4362" />
    <clipPath
       id="clp12">
      <path
         d="m 45.315,71.927 h 12.92 v 15.867 h -12.92 z"
         id="path184"
         inkscape:connector-curvature="0" />
    </clipPath>
    <clipPath
       id="clp21">
      <path
         d="m 123.91,72.178 h 26.23 v 15.294 h -26.23 z"
         id="path592"
         inkscape:connector-curvature="0" />
    </clipPath>
    <clipPath
       id="clp9">
      <path
         d="m 413.96,49.857 h 31.76 v 8.719 h -31.76 z"
         id="path100"
         inkscape:connector-curvature="0" />
    </clipPath>
  </defs>
  <g
     transform="translate(2262.3539,-2951.9859)"
     id="layer1">
    <g
       transform="translate(19.48863,19.49672)"
       id="g25472">
      <g
         id="g4353"
         transform="matrix(0.67573771,0,0,0.67573771,374.45067,977.3331)">
        <g
           transform="translate(80.542606)"
           id="g4347">
          <g
             id="g79"
             transform="translate(8.0109432,4.5958121)">
            <path
               sodipodi:type="star"
               style="fill:#0f8e87;fill-opacity:1;stroke:#0d726a;stroke-width:73.99320221;stroke-miterlimit:4;stroke-dasharray:none;stroke-opacity:1"
               id="path4560"
               sodipodi:sides="6"
               sodipodi:cx="-5551.2134"
               sodipodi:cy="-204.52565"
               sodipodi:r1="1701.6108"
               sodipodi:r2="1473.6381"
               sodipodi:arg1="1.0471976"
               sodipodi:arg2="1.5707963"
               inkscape:flatsided="true"
               inkscape:rounded="0"
               inkscape:randomized="0"
               d="m -4700.408,1269.1126 -1701.6109,-10e-5 -850.8053,-1473.63823 850.8055,-1473.63817 1701.6108,10e-5 850.8054,1473.63823 z"
               inkscape:transform-center-x="1.5731476e-05"
               inkscape:transform-center-y="7.9344316e-05"
               transform="matrix(0,0.08149567,-0.08132553,0,-3913.2866,3483.3248)" />
            <g
               aria-label="oscarwilder"
               transform="matrix(0.65732564,-0.37950713,0.37950713,0.65732564,-938.63716,761.02281)"
               style="font-style:normal;font-weight:normal;font-size:19.93434334px;line-height:0;font-family:sans-serif;letter-spacing:0px;word-spacing:0px;fill:#ffffff;fill-opacity:1;stroke:none;stroke-width:0.74753785"
               id="text4565">
              <path
                 d="m -4945.0897,779.48951 c -2.7709,0 -4.4653,1.99343 -4.4653,5.60155 0,3.68785 1.6944,5.60155 4.4454,5.60155 2.7709,0 4.4653,-2.05324 4.4653,-5.60155 0,-3.74766 -1.7144,-5.60155 -4.4454,-5.60155 z m 0,2.0333 c 1.0964,0 1.6346,0.93691 1.6346,3.56825 0,2.6114 -0.5382,3.58818 -1.6545,3.58818 -1.0964,0 -1.6546,-0.95685 -1.6546,-3.58818 0,-2.6114 0.5781,-3.56825 1.6745,-3.56825 z"
                 style="font-style:normal;font-variant:normal;font-weight:600;font-stretch:condensed;font-family:'Fira Sans Condensed';-inkscape-font-specification:'Fira Sans Condensed, Semi-Bold Condensed';fill:#ffffff;stroke-width:0.74753785"
                 id="path4567"
                 inkscape:connector-curvature="0" />
              <path
                 d="m -4935.7261,779.48951 c -2.3124,0 -3.7078,1.37547 -3.7078,3.16956 0,1.51501 0.7774,2.43199 2.6712,3.12969 1.6147,0.59803 1.9535,0.91698 1.9535,1.73429 0,0.77744 -0.5382,1.21599 -1.3954,1.21599 -0.8771,0 -1.6745,-0.41862 -2.3722,-0.99672 l -1.2957,1.43528 c 0.8971,0.91698 2.2127,1.51501 3.7875,1.51501 2.2925,0 4.0268,-1.25587 4.0268,-3.38884 0,-1.73429 -0.9569,-2.59147 -2.7709,-3.2493 -1.5947,-0.59803 -1.9336,-0.89705 -1.9336,-1.55488 0,-0.65783 0.4585,-1.05652 1.2359,-1.05652 0.7575,0 1.4353,0.29902 2.1529,0.81731 l 1.0167,-1.49508 c -0.8572,-0.79737 -2.0134,-1.27579 -3.3689,-1.27579 z"
                 style="font-style:normal;font-variant:normal;font-weight:600;font-stretch:condensed;font-family:'Fira Sans Condensed';-inkscape-font-specification:'Fira Sans Condensed, Semi-Bold Condensed';fill:#ffffff;stroke-width:0.74753785"
                 id="path4569"
                 inkscape:connector-curvature="0" />
              <path
                 d="m -4926.5171,779.48951 c -2.7509,0 -4.5052,2.1529 -4.5052,5.68128 0,3.48851 1.7343,5.52182 4.5451,5.52182 1.2359,0 2.2326,-0.47843 3.0499,-1.216 l -1.196,-1.59475 c -0.5981,0.43856 -1.0566,0.67777 -1.6945,0.67777 -1.0963,0 -1.8738,-0.7575 -1.8738,-3.40877 0,-2.69114 0.7177,-3.56825 1.8938,-3.56825 0.6179,0 1.1362,0.23921 1.7143,0.6977 l 1.1363,-1.53494 c -0.8572,-0.81731 -1.814,-1.25586 -3.0699,-1.25586 z"
                 style="font-style:normal;font-variant:normal;font-weight:600;font-stretch:condensed;font-family:'Fira Sans Condensed';-inkscape-font-specification:'Fira Sans Condensed, Semi-Bold Condensed';fill:#ffffff;stroke-width:0.74753785"
                 id="path4571"
                 inkscape:connector-curvature="0" />
              <path
                 d="m -4915.0545,787.64265 v -4.52509 c 0,-2.41206 -1.1562,-3.62805 -3.6879,-3.62805 -1.0964,0 -2.3722,0.27908 -3.4885,0.77744 l 0.598,1.75422 c 0.917,-0.33889 1.7144,-0.53823 2.4121,-0.53823 1.0964,0 1.515,0.45849 1.515,1.77416 v 0.6379 h -0.8572 c -2.8107,0 -4.3257,1.23592 -4.3257,3.52837 0,1.95357 1.1562,3.26924 2.9901,3.26924 1.0565,0 2.0333,-0.43856 2.731,-1.53495 0.3788,0.97679 1.0964,1.35554 2.1729,1.49508 l 0.5581,-1.79409 c -0.4385,-0.19935 -0.6179,-0.47843 -0.6179,-1.216 z m -4.0666,1.09639 c -0.6778,0 -1.0765,-0.51829 -1.0765,-1.53494 0,-1.19606 0.598,-1.77416 1.8738,-1.77416 h 0.618 v 2.15291 c -0.319,0.73757 -0.7974,1.15619 -1.4153,1.15619 z"
                 style="font-style:normal;font-variant:normal;font-weight:600;font-stretch:condensed;font-family:'Fira Sans Condensed';-inkscape-font-specification:'Fira Sans Condensed, Semi-Bold Condensed';fill:#ffffff;stroke-width:0.74753785"
                 id="path4573"
                 inkscape:connector-curvature="0" />
              <path
                 d="m -4907.8062,779.52937 c -1.1363,0 -1.9536,0.77744 -2.432,2.15291 l -0.1994,-1.87382 h -2.3721 v 10.5652 h 2.711 v -5.72116 c 0.319,-1.51501 0.7974,-2.49179 1.9337,-2.49179 0.299,0 0.5182,0.0399 0.7774,0.1196 l 0.4585,-2.6114 c -0.2791,-0.0797 -0.5582,-0.13954 -0.8771,-0.13954 z"
                 style="font-style:normal;font-variant:normal;font-weight:600;font-stretch:condensed;font-family:'Fira Sans Condensed';-inkscape-font-specification:'Fira Sans Condensed, Semi-Bold Condensed';fill:#ffffff;stroke-width:0.74753785"
                 id="path4575"
                 inkscape:connector-curvature="0" />
              <path
                 d="m -4893.8846,779.80846 h -2.5316 l -1.1164,8.53189 -1.3156,-8.53189 h -2.6314 l -1.3954,8.53189 -1.0366,-8.53189 h -2.6512 l 1.9336,10.5652 h 3.1895 l 1.216,-8.11328 1.2359,8.11328 h 3.2095 z"
                 style="font-style:normal;font-variant:normal;font-weight:600;font-stretch:condensed;font-family:'Fira Sans Condensed';-inkscape-font-specification:'Fira Sans Condensed, Semi-Bold Condensed';fill:#ffffff;stroke-width:0.74753785"
                 id="path4577"
                 inkscape:connector-curvature="0" />
              <path
                 d="m -4891.2473,774.46605 c -0.9369,0 -1.5948,0.67777 -1.5948,1.57481 0,0.89705 0.6579,1.57482 1.5948,1.57482 0.9369,0 1.5947,-0.67777 1.5947,-1.57482 0,-0.89704 -0.6578,-1.57481 -1.5947,-1.57481 z m 1.3555,5.34241 h -2.7111 v 10.5652 h 2.7111 z"
                 style="font-style:normal;font-variant:normal;font-weight:600;font-stretch:condensed;font-family:'Fira Sans Condensed';-inkscape-font-specification:'Fira Sans Condensed, Semi-Bold Condensed';fill:#ffffff;stroke-width:0.74753785"
                 id="path4579"
                 inkscape:connector-curvature="0" />
              <path
                 d="m -4885.2652,790.69261 c 0.6579,0 1.236,-0.17941 1.6347,-0.35882 l -0.5183,-1.89376 c -0.1196,0.0399 -0.2592,0.0797 -0.4386,0.0797 -0.3389,0 -0.4983,-0.19934 -0.4983,-0.57809 v -12.63838 l -2.7111,0.29902 v 12.45896 c 0,1.63462 0.9369,2.63134 2.5316,2.63134 z"
                 style="font-style:normal;font-variant:normal;font-weight:600;font-stretch:condensed;font-family:'Fira Sans Condensed';-inkscape-font-specification:'Fira Sans Condensed, Semi-Bold Condensed';fill:#ffffff;stroke-width:0.74753785"
                 id="path4581"
                 inkscape:connector-curvature="0" />
              <path
                 d="m -4877.1936,775.32323 v 5.24273 c -0.5183,-0.6379 -1.2359,-1.07645 -2.1729,-1.07645 -2.1927,0 -3.7077,2.19277 -3.7077,5.60155 0,3.52838 1.196,5.60155 3.4885,5.60155 1.2359,0 2.0133,-0.67777 2.5715,-1.53495 l 0.1196,1.216 h 2.4121 v -14.77135 z m -1.5549,13.35601 c -0.897,0 -1.515,-0.79738 -1.515,-3.58818 0,-2.63134 0.6977,-3.58819 1.6346,-3.58819 0.618,0 1.0366,0.37876 1.4353,0.97679 v 5.00352 c -0.4186,0.7575 -0.8971,1.19606 -1.5549,1.19606 z"
                 style="font-style:normal;font-variant:normal;font-weight:600;font-stretch:condensed;font-family:'Fira Sans Condensed';-inkscape-font-specification:'Fira Sans Condensed, Semi-Bold Condensed';fill:#ffffff;stroke-width:0.74753785"
                 id="path4583"
                 inkscape:connector-curvature="0" />
              <path
                 d="m -4864.2656,784.85184 c 0,-3.52837 -1.5947,-5.36233 -4.1862,-5.36233 -2.7908,0 -4.2859,2.31238 -4.2859,5.68128 0,3.40878 1.5549,5.52182 4.565,5.52182 1.515,0 2.6712,-0.59803 3.5682,-1.43528 l -1.1163,-1.47514 c -0.7774,0.59803 -1.4352,0.89705 -2.2526,0.89705 -1.1362,0 -1.8937,-0.59803 -2.0333,-2.77088 h 5.6813 c 0.04,-0.29901 0.06,-0.71763 0.06,-1.05652 z m -2.6313,-0.59803 h -3.1297 c 0.1196,-2.25258 0.6778,-2.93034 1.6147,-2.93034 1.0964,0 1.4951,0.93691 1.515,2.75093 z"
                 style="font-style:normal;font-variant:normal;font-weight:600;font-stretch:condensed;font-family:'Fira Sans Condensed';-inkscape-font-specification:'Fira Sans Condensed, Semi-Bold Condensed';fill:#ffffff;stroke-width:0.74753785"
                 id="path4585"
                 inkscape:connector-curvature="0" />
              <path
                 d="m -4857.62,779.52937 c -1.1362,0 -1.9535,0.77744 -2.432,2.15291 l -0.1993,-1.87382 h -2.3722 v 10.5652 h 2.7111 v -5.72116 c 0.3189,-1.51501 0.7974,-2.49179 1.9336,-2.49179 0.299,0 0.5183,0.0399 0.7775,0.1196 l 0.4584,-2.6114 c -0.279,-0.0797 -0.5581,-0.13954 -0.8771,-0.13954 z"
                 style="font-style:normal;font-variant:normal;font-weight:600;font-stretch:condensed;font-family:'Fira Sans Condensed';-inkscape-font-specification:'Fira Sans Condensed, Semi-Bold Condensed';fill:#ffffff;stroke-width:0.74753785"
                 id="path4587"
                 inkscape:connector-curvature="0" />
            </g>
            <g
               id="g52"
               transform="translate(17.959382)">
              <path
                 sodipodi:nodetypes="ccccccccccccccccccccccccccccccccccccccccccc"
                 style="fill:#ffffff;stroke-width:1.36778355"
                 inkscape:connector-curvature="0"
                 d="m -3990.3909,2982.1553 c -7.6744,3.2622 -13.898,14.8449 -4.4451,19.7289 2.8778,1.4869 6.6077,0.9684 8.9276,-1.2377 4.5203,-4.3003 1.2336,-12.6616 -0.6266,-17.2832 -0.4774,0.4513 -0.9533,0.9012 -1.4292,1.3512 5.5162,-0.5649 11.1568,-0.6497 16.6526,0.1094 6.8074,0.9411 7.7841,3.4674 5.9623,9.8903 -0.8754,3.0898 -1.9204,6.2688 -3.4005,9.1328 -0.7004,1.3541 1.9821,1.4062 2.5358,0.3337 3.079,-5.9594 8.6939,-16.7101 0.3352,-20.2199 -6.4256,-2.6987 -15.0851,-1.9381 -21.8666,-1.2434 -0.5473,0.057 -1.7427,0.5733 -1.4295,1.3514 1.7138,4.2554 6.0716,20.1627 -4.1457,15.9868 -8.1862,-3.3457 -1.4484,-13.9172 4.1171,-16.2834 1.6633,-0.7044 0.1901,-2.2022 -1.1874,-1.6169 v 0 m 52.0702,6.0921 c -2.6643,-2.9816 -8.0958,-5.8445 -11.049,-1.5319 -1.674,2.4442 -2.3674,5.8473 -0.2283,8.2095 1.9972,2.2049 5.6149,2.6494 8.4039,2.6808 1.1119,0.018 2.7682,-1.6591 0.9793,-1.681 -2.1954,-0.027 -4.4032,-0.3282 -6.2839,-1.5358 -2.2171,-1.4238 -2.0065,-4.0967 -1.112,-6.2412 1.0232,-2.4527 2.5715,-2.1148 4.4824,-0.8729 0.871,0.5664 1.6754,1.2858 2.3675,2.0615 0.6936,0.7754 3.2184,-0.219 2.4401,-1.089 v 0 m 19.4389,2.8286 c -0.7987,0.7072 -1.6372,1.361 -2.4837,2.0094 -3.3744,2.5836 -9.8166,4.0322 -6.7829,-2.4238 1.8397,-3.9159 6.709,-5.1894 8.011,-0.5008 0.5472,1.9726 1.2338,3.8191 2.3089,5.5604 1.5293,2.4769 4.9789,3.2743 7.6459,2.5016 3.2048,-0.9288 6.0826,-2.4853 8.9891,-4.1076 3.1377,-1.7493 3.6096,-0.1956 5.2673,2.5128 0.6332,1.0339 3.1487,0.023 2.4182,-1.1724 -1.0462,-1.707 -2.087,-4.6751 -4.467,-4.7366 -3.1036,-0.08 -6.9608,3.2295 -9.5555,4.5302 -13.1937,6.6103 -6.0415,-13.6301 -16.345,-10.8397 -3.9693,1.0752 -11.6109,9.5048 -6.3396,13.1881 3.9119,2.7343 10.4305,-2.9338 13.0938,-5.2878 1.3418,-1.1886 -0.7538,-2.1241 -1.7605,-1.2338 v 0"
                 id="path4541" />
              <path
                 sodipodi:nodetypes="ccccccccccccccccccccccccccccccccccccccccccccccccccccccccccccccc"
                 id="path48"
                 d="m -3971.3864,3013.2521 c -1.2064,5.2262 -2.4401,10.8068 -2.3292,16.1902 0.2395,11.4842 9.6743,-2.8927 13.0718,2.5581 1.8014,2.8913 4.7067,4.7994 8.1699,4.4029 7.3477,-0.8441 10.7534,-11.3117 12.8352,-16.958 0.3255,-0.8835 -2.317,-0.547 -2.6426,0.3309 -1.5347,4.1651 -6.5407,19.1681 -13.4549,13.9639 -2.343,-1.7646 -2.8819,-4.8598 -6.371,-4.4206 -1.5361,0.1929 -7.6584,3.8461 -8.304,3.2155 -1.5099,-1.4703 -0.5907,-5.7952 -0.4184,-7.5856 0.3883,-4.0393 1.1737,-8.0768 2.0859,-12.0282 0.2284,-0.9891 -2.4335,-0.5692 -2.6427,0.3309 v 0 m 39.0051,12.34 c -2.6193,12.3414 33.6859,3.2513 38.2228,-2.9624 2.607,-3.5713 -2.6931,-11.0192 -6.7215,-8.0358 -6.7184,4.9731 0.053,21.2004 1.6743,27.4827 0.2176,0.8469 2.8629,0.1465 2.6426,-0.7083 -1.0723,-4.1582 -2.1953,-8.3053 -3.1568,-12.4907 -0.2928,-1.2748 -1.3171,-14.7353 1.4771,-12.3907 1.6688,1.3992 2.5674,3.5904 1.8863,5.6735 -2.3131,7.0864 -35.4393,12.719 -33.3905,3.0679 0.193,-0.9136 -2.4563,-0.4719 -2.6343,0.3638 v 0 m 7.5627,-16.1383 c 0.2912,0.6045 0.5824,1.2077 0.8739,1.8122 0.2748,0.5717 0.9847,0.5936 1.5359,0.4461 0.3653,-0.099 1.3774,-0.5923 1.1065,-1.1547 -0.2911,-0.6045 -0.5826,-1.2076 -0.8738,-1.8122 -0.2751,-0.5717 -0.9849,-0.5937 -1.536,-0.4459 -0.3655,0.097 -1.3776,0.5923 -1.1065,1.1545 v 0 m 61.9154,24.1072 c -4.3688,-5.3413 -15.5437,0.6428 -11.9681,6.3737 1.3854,2.2199 5.5901,0.6264 7.2273,-0.1403 5.6447,-2.6424 8.7331,-8.9794 10.6728,-14.5175 -0.8851,0.088 -1.7727,0.1778 -2.6578,0.2666 -1.5249,5.0446 -1.4441,10.6332 0.7238,15.452 2.611,5.8089 11.0202,9.5183 17.0125,7.0385 2.8352,-1.1736 8.2791,-4.5015 6.5612,-8.375 -1.2474,-2.816 -5.1716,-0.703 -6.7092,0.4804 -7.3353,5.6421 -11.4645,16.7757 -15.4147,24.8031 -3.5056,7.1262 -9.141,16.85 -8.9247,25.1045 0.1106,4.2139 15.4245,20.4729 19.5127,14.1085 0.7331,-1.1407 -1.9531,-1.0175 -2.4921,-0.1764 -0.4405,0.6853 -14.2988,-11.8408 -14.381,-14.9827 -0.106,-4.0008 2.1391,-8.6198 3.5535,-12.2075 2.4033,-6.1072 5.3303,-12.0131 8.3355,-17.8412 2.8969,-5.6229 5.8896,-11.3719 9.9627,-16.244 4.1007,-4.9048 5.5574,-0.4388 1.1627,2.9134 -5.1701,3.9448 -11.7888,-0.2474 -14.8666,-4.2222 -1.9297,-2.492 -2.3441,-6.095 -2.3977,-9.1178 -0.04,-2.3226 0.3489,-4.7734 1.0205,-6.9987 0.3393,-1.1232 -2.3223,-0.6896 -2.6577,0.2666 -1.8451,5.2646 -4.8639,11.536 -10.5483,13.541 -5.1073,1.8001 -0.3132,-10.7221 4.838,-4.4262 0.6647,0.8154 3.1965,-0.1654 2.4347,-1.0982 v 0 m 29.4756,62.1617 c 0.3885,0.8451 0.7757,1.6919 1.1655,2.5372 0.2639,0.5757 2.8106,-0.3419 2.6423,-0.7084 -0.3882,-0.8455 -0.7754,-1.692 -1.1651,-2.5374 -0.2656,-0.5757 -2.8109,0.3421 -2.6427,0.7086 z"
                 inkscape:connector-curvature="0"
                 style="fill:#ffffff;stroke-width:1.36778355" />
            </g>
          </g>
          <g
             id="g4483"
             transform="matrix(0.05952936,0,3.5003203e-4,0.05952936,-3628.393,3020.4988)" />
        </g>
      </g>
    </g>
  </g>
</svg>
